

<svg xmlns="http://www.w3.org/2000/svg" viewBox="0 0 8.13 8.08"><defs><style>.cls-1,.cls-2{fill:#C80020;}.cls-2{stroke:#c1272d;stroke-miterlimit:10;stroke-width:0.25px;}</style></defs><g id="Layer_2" data-name="Layer 2"><g id="Layer_1-2" data-name="Layer 1"><path class="cls-1" d="M4.11,0c.31.06.39.33.5.59L4.86.35A.43.43,0,0,1,5.31.2a.44.44,0,0,1,.31.4c0,.09,0,.19,0,.32A2.6,2.6,0,0,0,5.91.79a.48.48,0,0,1,.54,0,.43.43,0,0,1,.17.49c0,.09,0,.18,0,.3l.3-.06a.43.43,0,0,1,.49.17.44.44,0,0,1,0,.51l-.17.27.38,0a.4.4,0,0,1,.35.28.42.42,0,0,1-.11.47,2.84,2.84,0,0,0-.26.24c.24.15.59.18.57.57s-.33.4-.57.52l.29.3a.4.4,0,0,1-.18.67,3,3,0,0,1-.45.09c.06.12.13.23.19.36a.4.4,0,0,1-.08.44.38.38,0,0,1-.4.15l-.36-.07c0,.12,0,.24,0,.35a.41.41,0,0,1-.16.44.45.45,0,0,1-.5,0l-.29-.15c-.06.28,0,.61-.36.72s-.49-.2-.69-.39c-.06.11-.11.23-.16.33a.38.38,0,0,1-.36.24.4.4,0,0,1-.42-.23c-.05-.11-.1-.22-.17-.35-.1.1-.19.21-.29.3a.37.37,0,0,1-.42.09.42.42,0,0,1-.29-.37c0-.11,0-.21,0-.34l-.32.16a.39.39,0,0,1-.48,0,.4.4,0,0,1-.15-.45c0-.1,0-.2.06-.33L1.2,6.6a.4.4,0,0,1-.4-.15A.4.4,0,0,1,.73,6c.05-.11.12-.22.19-.36l-.33,0A.41.41,0,0,1,.2,5.31a.42.42,0,0,1,.11-.45l.25-.27C.34,4.46,0,4.43,0,4.05s.33-.41.59-.55c-.22-.2-.51-.35-.4-.7s.43-.31.73-.33L.75,2.14a.41.41,0,0,1,0-.48.44.44,0,0,1,.47-.15l.32.07c0-.12,0-.22-.06-.32A.39.39,0,0,1,1.66.8a.41.41,0,0,1,.49,0l.31.17c0-.13,0-.23,0-.33A.42.42,0,0,1,2.8.21a.42.42,0,0,1,.47.12l.25.26C3.63.34,3.7.07,4,0ZM6.89,4A2.82,2.82,0,0,0,4.12,1.22,2.86,2.86,0,0,0,1.23,4.06,2.86,2.86,0,0,0,4.06,6.85,2.82,2.82,0,0,0,6.89,4Z"/><path class="cls-2" d="M5.07,5.61l-1-1.31-1,1.31H2.58L3.83,4,2.64,2.48h.48l1,1.22L5,2.48h.46L4.29,4,5.56,5.61Z"/></g></g></svg>