<svg xmlns="http://www.w3.org/2000/svg" viewBox="0 0 25.51 25.29"><defs><style>.cls-1{isolation:isolate;}.cls-2{opacity:0.25;mix-blend-mode:multiply;}.cls-3,.cls-5{fill:none;stroke-miterlimit:10;stroke-width:0.25px;}.cls-3{stroke:#000;}.cls-4{fill:#fff;}.cls-5{stroke:#b3b3b3;}</style></defs><g class="cls-1"><g id="Layer_2" data-name="Layer 2"><g id="Layer_1-2" data-name="Layer 1"><g class="cls-2"><path d="M12.25.12a12.1,12.1,0,0,0-12.13,12v12H12.25a12,12,0,1,0,0-24Z"/><path class="cls-3" d="M12.25.12a12.1,12.1,0,0,0-12.13,12v12H12.25a12,12,0,1,0,0-24Z"/></g><path class="cls-4" d="M13.25,1.12a12.1,12.1,0,0,0-12.13,12v12H13.25a12,12,0,1,0,0-24Z"/><path class="cls-5" d="M13.25,1.12a12.1,12.1,0,0,0-12.13,12v12H13.25a12,12,0,1,0,0-24Z"/></g></g></g></svg>