<svg xmlns="http://www.w3.org/2000/svg" viewBox="0 0 16.86 16.77"><defs><style>.cls-1{fill:#ff4c00;}</style></defs><g id="Layer_2" data-name="Layer 2"><g id="Layer_1-2" data-name="Layer 1"><path class="cls-1" d="M16.86,8.25c0,1.59,0,3.18,0,4.77a.48.48,0,0,1-.34.52l-7.85,3.2a.73.73,0,0,1-.46,0L.32,13.52A.45.45,0,0,1,0,13Q0,8.25,0,3.46a.56.56,0,0,1,.41-.6L8.23,0a.67.67,0,0,1,.42,0l7.75,2.8a.59.59,0,0,1,.46.65C16.85,5.08,16.86,6.67,16.86,8.25ZM8.06.87,7.69,1c-2.18.79-4.36,1.59-6.55,2.37a.5.5,0,0,0-.41.56c0,2.75,0,5.5,0,8.26v.43l.37-.11c2.2-.8,4.4-1.6,6.6-2.38a.46.46,0,0,0,.36-.52q0-3.6,0-7.2Zm2.2,9.63V4.58c0-.54.18-.66.68-.48,1,.34,1.9.71,2.86,1a.62.62,0,0,1,.48.71c0,1.91,0,3.83,0,5.74,0,.14.05.37.14.41.54.23,1.11.41,1.68.62,0-.09,0-.15,0-.2,0-2.88,0-5.75,0-8.63a.35.35,0,0,0-.29-.39L11.52,1.84,8.8.86c0,3,0,6,0,8.92A.36.36,0,0,0,9,10C9.38,10.2,9.79,10.33,10.26,10.5Zm5.19,2.68a2.31,2.31,0,0,0-.27-.12L8.65,10.7a.88.88,0,0,0-.53,0L1.83,13l-.42.18C3.75,14.13,6,15.05,8.26,16a.76.76,0,0,0,.49,0l3.12-1.27Zm-1.87-1.47c0-1.92,0-3.78,0-5.63a.4.4,0,0,0-.17-.31c-.78-.3-1.57-.58-2.39-.88v5.9Z"/><path class="cls-1" d="M2.59,7.51c0-.57,0-1.14,0-1.71a.49.49,0,0,1,.36-.52L6,4.09c.44-.18.65,0,.65.43,0,1.13,0,2.25,0,3.38a.5.5,0,0,1-.37.54l-3,1.19c-.43.16-.62,0-.62-.42S2.59,8.07,2.59,7.51ZM5.86,4.9l-2.44,1a.26.26,0,0,0-.13.18c0,.9,0,1.8,0,2.77.86-.34,1.66-.65,2.46-1a.25.25,0,0,0,.11-.18C5.87,6.76,5.86,5.85,5.86,4.9Z"/></g></g></svg>