<svg xmlns="http://www.w3.org/2000/svg" viewBox="0 0 42.49 16.56"><defs><style>.cls-1{font-size:9.74px;}.cls-1,.cls-2{fill:#ff3d00;}.cls-1,.cls-3{font-family:GothamRounded-Bold, Gotham Rounded;font-weight:700;}.cls-3{font-size:4.38px;fill:#f7931e;}</style></defs><g id="Layer_2" data-name="Layer 2"><g id="Layer_1-2" data-name="Layer 1"><text class="cls-1" transform="translate(0 11.15) scale(0.97 1)">roomph</text><ellipse class="cls-2" cx="40.4" cy="9.67" rx="1.68" ry="1.66"/><path class="cls-2" d="M41.82.59A2,2,0,0,0,39.35.3,2.18,2.18,0,0,0,39,3.75a.7.7,0,0,1,.32.61c0,.42-.06.77-.09,1.15h0a.77.77,0,0,1,0,.15c-.06.59-.1.79-.17,1.42,0,.29,0,.47.3.48h2.08c.24,0,.33-.14.28-.58-.07-.64-.12-1.08-.17-1.47h0c0-.28-.06-.6-.1-1a.8.8,0,0,1,.27-.69,2.57,2.57,0,0,0,.53-.66A2.13,2.13,0,0,0,41.82.59Z"/><text class="cls-3" transform="translate(0 15.26) scale(1.01 1)">PREMIUM</text></g></g></svg>