<svg xmlns="http://www.w3.org/2000/svg" viewBox="0 0 16 14.76"><defs><style>.cls-1{fill:#ff4c00;}</style></defs><g id="Layer_2" data-name="Layer 2"><g id="Layer_1-2" data-name="Layer 1"><path class="cls-1" d="M0,7.35l0-.12a1.28,1.28,0,0,1,1-1l.11,0s0,0,0-.08c0-.85,0-1.69,0-2.54,0-.59,0-1.18,0-1.77A1.74,1.74,0,0,1,1.63.69,2,2,0,0,1,3.29,0a2.08,2.08,0,0,1,1.3.48c.1.1.12.09.24,0a1.78,1.78,0,0,1,1-.19A2,2,0,0,1,7.09,1a.52.52,0,0,1,.13.5.25.25,0,0,1-.08.14C6.36,2.44,5.58,3.21,4.81,4a.51.51,0,0,1-.59,0,2.25,2.25,0,0,1-.68-.88,1.69,1.69,0,0,1,.25-1.66l.1-.13c0-.06,0-.1,0-.14A.91.91,0,0,0,3.3,1a1.25,1.25,0,0,0-.69.14.76.76,0,0,0-.39.62c0,.39,0,.78,0,1.17,0,1,0,2.11,0,3.17V6.2H14.26c.2,0,.41,0,.61,0a.82.82,0,0,1,.48.14,1.82,1.82,0,0,1,.49.47.83.83,0,0,1,.15.43s0,0,0,.06v.38s0,0,0,.08a1.8,1.8,0,0,1-.12.35,1.56,1.56,0,0,1-.63.59.11.11,0,0,0-.07.12c0,.45,0,.9,0,1.35a4.35,4.35,0,0,1-.05.81,3,3,0,0,1-2.24,2.39l-.14,0,.14.16a3.92,3.92,0,0,1,.34.37.47.47,0,0,1-.21.72,1.39,1.39,0,0,1-.19.06h0a.7.7,0,0,1-.45-.26l-.89-.87a.4.4,0,0,0-.33-.14H5a.75.75,0,0,0-.58.24c-.3.32-.63.62-1,.92a.44.44,0,0,1-.52,0,.46.46,0,0,1-.26-.47.56.56,0,0,1,.21-.39c.11-.13.23-.24.35-.37l0,0-.11,0a3,3,0,0,1-1.46-.86,2.87,2.87,0,0,1-.82-2c0-.56,0-1.11,0-1.67a.1.1,0,0,0-.07-.11,1.44,1.44,0,0,1-.65-.64A2.52,2.52,0,0,1,0,7.7ZM14.19,8.86H1.82v0c0,.52,0,1,0,1.55a2.07,2.07,0,0,0,.3,1.06,1.89,1.89,0,0,0,1.59,1c.63,0,1.26,0,1.89,0h6.51a2,2,0,0,0,.69-.12,2.06,2.06,0,0,0,1.34-1.85c0-.28,0-.57,0-.85S14.19,9.13,14.19,8.86ZM8,7.22H1.86c-.19,0-.38,0-.57,0A.28.28,0,0,0,1,7.5a.26.26,0,0,0,.26.3h.15l1.5,0H14.69a.3.3,0,0,0,0-.6H8ZM6,1.39a.63.63,0,0,0-.65,0L5,1.68c-.16.16-.31.33-.46.5a.62.62,0,0,0,0,.68Z"/><path class="cls-1" d="M6.14,4.75c0-.2.18-.32.31-.22a1.7,1.7,0,0,1,.37.34.22.22,0,0,1-.05.3.19.19,0,0,1-.28,0A3.83,3.83,0,0,1,6.2,4.9.42.42,0,0,1,6.14,4.75Z"/><path class="cls-1" d="M7.1,4.22a.27.27,0,0,1-.11,0,3,3,0,0,1-.31-.31.24.24,0,0,1,.16-.37.2.2,0,0,1,.11,0,1.2,1.2,0,0,1,.37.34.24.24,0,0,1,0,.26C7.28,4.2,7.2,4.21,7.1,4.22Z"/><path class="cls-1" d="M7.83,3.19A.56.56,0,0,1,8,3.26c.11.1.21.21.31.32a.16.16,0,0,1,0,.23c-.1.11-.19.15-.28.1a.89.89,0,0,1-.39-.4A.24.24,0,0,1,7.83,3.19Z"/><path class="cls-1" d="M7.35,3a.28.28,0,0,1-.2.25.23.23,0,0,1-.14,0,1.27,1.27,0,0,1-.37-.36.21.21,0,0,1,0-.26A.21.21,0,0,1,6.9,2.5.27.27,0,0,1,7,2.57a2.83,2.83,0,0,1,.25.24S7.32,2.91,7.35,3Z"/><path class="cls-1" d="M5.64,3.75c0-.21.18-.32.33-.21a2,2,0,0,1,.33.32.21.21,0,0,1,0,.28A.22.22,0,0,1,6,4.19a.72.72,0,0,1-.37-.36A.15.15,0,0,1,5.64,3.75Z"/><path class="cls-1" d="M7.86,5c0,.17-.21.3-.33.21a4.31,4.31,0,0,1-.37-.37.18.18,0,0,1,0-.24.18.18,0,0,1,.25-.06,1.07,1.07,0,0,1,.4.39A.25.25,0,0,1,7.86,5Z"/></g></g></svg>