<svg xmlns="http://www.w3.org/2000/svg" width="32.635" height="26.771" viewBox="0 0 32.635 26.771"><path d="M2.7,10.163a.639.639,0,0,1-.451-.186l-1.9-1.9a1.193,1.193,0,0,1,.02-1.708,23.153,23.153,0,0,1,31.9,0,1.193,1.193,0,0,1,.019,1.708L30.77,9.588A1.189,1.189,0,0,1,29.1,9.61a18.624,18.624,0,0,0-25.953.367.637.637,0,0,1-.45.186ZM1.309,7.233l1.4,1.4a19.9,19.9,0,0,1,27.216,0l1.4-1.4a21.879,21.879,0,0,0-30.015,0Zm0,0" transform="translate(0.001 0)"/><path d="M92.93,110.05a1.186,1.186,0,0,1-.805-.315,12.052,12.052,0,0,0-6.149-3.025.637.637,0,0,1,.214-1.257,13.326,13.326,0,0,1,6.739,3.289l1.4-1.4a15.371,15.371,0,0,0-20.809,0l1.4,1.4a13.394,13.394,0,0,1,5.851-3.106.637.637,0,0,1,.3,1.239,12.113,12.113,0,0,0-5.347,2.86,1.189,1.189,0,0,1-1.65-.036l-1.514-1.514a1.182,1.182,0,0,1-.35-.865,1.2,1.2,0,0,1,.382-.855,16.647,16.647,0,0,1,22.666,0,1.2,1.2,0,0,1,.382.855,1.183,1.183,0,0,1-.35.865L93.775,109.7a1.192,1.192,0,0,1-.845.351Zm0,0" transform="translate(-67.606 -95.509)"/><path d="M155.954,210.162a1.2,1.2,0,0,1-.777-.288,5.61,5.61,0,0,0-7.251,0,1.185,1.185,0,0,1-1.614-.061l-1.521-1.52a1.193,1.193,0,0,1,.05-1.736,10.139,10.139,0,0,1,13.421,0,1.192,1.192,0,0,1,.05,1.736l-1.521,1.52a1.18,1.18,0,0,1-.837.349Zm-4.4-2.892a6.887,6.887,0,0,1,4.4,1.585l1.4-1.4a8.864,8.864,0,0,0-11.6,0l1.4,1.4A6.885,6.885,0,0,1,151.551,207.27Zm0,0" transform="translate(-135.233 -191.015)"/><path d="M202.688,313.292a3.632,3.632,0,1,1,3.633-3.632A3.637,3.637,0,0,1,202.688,313.292Zm0-5.99a2.358,2.358,0,1,0,1.668.69A2.343,2.343,0,0,0,202.688,307.3Zm0,0" transform="translate(-186.367 -286.521)"/><path d="M240.525,154.228a.637.637,0,1,1,0-1.275h0a.637.637,0,0,1,0,1.275Zm0,0" transform="translate(-224.596 -143.204)"/></svg>