




<svg xmlns="http://www.w3.org/2000/svg" viewBox="0 0 29.94 28.22" height="20" width="60"><defs><style>.cls-1{fill:#fca527;}.cls-2{fill:#fff;}</style></defs><g id="Layer_2" data-name="Layer 2"><g id="Layer_1-2" data-name="Layer 1"><polygon class="cls-1" points="14.97 0 19.59 9.29 29.94 10.78 22.45 18.01 24.22 28.22 14.97 23.4 5.72 28.22 7.48 18.01 0 10.78 10.34 9.29 14.97 0"/><path class="cls-2" d="M16.85,20.83l-2.06-3.12H12.94v3.12h-2V11.41h3.78a5,5,0,0,1,2,.38A3,3,0,0,1,18,12.89a3,3,0,0,1-1.33,4.44L19,20.83ZM16,13.45a2.15,2.15,0,0,0-1.39-.4H12.94V16.1h1.64A2.1,2.1,0,0,0,16,15.7a1.41,1.41,0,0,0,.47-1.12A1.4,1.4,0,0,0,16,13.45Z"/></g></g></svg>