<svg xmlns="http://www.w3.org/2000/svg" viewBox="0 0 182.6 134.31"><defs><style>.cls-1{opacity:0.2;}.cls-2{fill:#fff;}</style></defs><g id="Layer_2" data-name="Layer 2"><g id="Layer_1-2" data-name="Layer 1"><g class="cls-1"><circle class="cls-2" cx="29.56" cy="104.75" r="29.56"/><path class="cls-2" d="M181.47,44.8c4-16.75-2.69-32-17.5-40.19-22.05-12.15-50.47.86-56,25.63-1,4.25-2.11,8.29-6.61,10.39-6.68,3.13-12.31,6-18.39,9l0,0-2.46,1.1c-9.7,4.31-13,5.49-23.33,10.15-4.63,2.08-6.87,4.75-4.59,8.85C55.52,74.94,67.94,96,71.1,101.29c2.18,3.66,5,3.72,11.24-.94,9.21-6.83,15.53-11.6,21.11-15.8l0,0c4-3,8.72-6.33,14.55-10.47a13.81,13.81,0,0,1,12.93-2.13,48.25,48.25,0,0,0,14.86,2.19C162.82,73.66,177.58,61.26,181.47,44.8Z"/></g></g></g></svg>