<svg xmlns="http://www.w3.org/2000/svg" viewBox="0 0 84.49 29.89"><defs><style>.cls-1{isolation:isolate;}.cls-2{opacity:0.25;mix-blend-mode:multiply;}.cls-3,.cls-5{fill:none;stroke-miterlimit:10;stroke-width:0.25px;}.cls-3{stroke:#000;}.cls-4{fill:#fff;}.cls-5{stroke:#b3b3b3;}.cls-6{fill:#ff3d00;}.cls-7{font-size:6.01px;font-family:Montserrat-Regular, Montserrat;}.cls-8{font-family:Montserrat-Bold, Montserrat;font-weight:700;}</style></defs><g class="cls-1"><g id="Layer_2" data-name="Layer 2"><g id="Layer_1-2" data-name="Layer 1"><g class="cls-2"><rect x="0.12" y="0.13" width="83.24" height="26.57" rx="13.28"/><rect class="cls-3" x="0.12" y="0.13" width="83.24" height="26.57" rx="13.28"/></g><rect class="cls-4" x="1.12" y="0.13" width="83.24" height="26.57" rx="13.28"/><rect class="cls-5" x="1.12" y="0.13" width="83.24" height="26.57" rx="13.28"/><path class="cls-6" d="M18,4.21c.13.11.11.23,0,.37-.21.35-.4.72-.61,1.08-.05.1,0,.15.06.2a4.69,4.69,0,0,1,2.15,3,.33.33,0,0,1-.27.42.55.55,0,0,1-.18,0H11a.46.46,0,0,1-.34-.1.36.36,0,0,1-.11-.36,4.67,4.67,0,0,1,2.08-2.95c.19-.13.2-.12.09-.32s-.38-.7-.58-1a.22.22,0,0,1,.07-.34h.13a1,1,0,0,1,.15.21c.19.35.4.71.58,1.06.06.11.12.13.23.08a4,4,0,0,1,1.36-.35,4.45,4.45,0,0,1,2.28.36c.12,0,.17,0,.22-.09.19-.36.4-.72.6-1.09a.46.46,0,0,1,.16-.18Zm-.41,3.16a.39.39,0,1,0-.39.39A.4.4,0,0,0,17.59,7.37Zm-4.27,0A.39.39,0,0,0,12.94,7a.38.38,0,0,0-.39.38.39.39,0,0,0,.38.4A.4.4,0,0,0,13.32,7.37Z"/><path class="cls-6" d="M15.09,9.82h4.17c.36,0,.47.11.47.47v7c0,.35-.12.47-.46.47s-.83,0-1.25,0c-.14,0-.19,0-.19.19,0,.73,0,1.47,0,2.2a1,1,0,0,1-.77,1,1,1,0,0,1-1.28-1.06V17.93c0-.15,0-.18-.18-.18-.37,0-.73,0-1.1,0-.12,0-.15,0-.15.16,0,.77,0,1.54,0,2.31a1,1,0,0,1-1.54.84,1,1,0,0,1-.51-1c0-.72,0-1.44,0-2.16,0-.13,0-.17-.17-.17-.42,0-.83,0-1.25,0s-.46-.12-.46-.46v-7c0-.36.12-.47.47-.47Z"/><path class="cls-6" d="M7.94,12.91c0-.7,0-1.4,0-2.09a1,1,0,0,1,.63-.92,1,1,0,0,1,1.08.19,1,1,0,0,1,.34.83v4A1,1,0,0,1,9.15,16a1,1,0,0,1-1.21-1V12.91Z"/><path class="cls-6" d="M22.22,12.93V15a1,1,0,0,1-2,.13c0-.14,0-.27,0-.41V11a1.08,1.08,0,0,1,.38-.91,1,1,0,0,1,1.06-.15.94.94,0,0,1,.6.9c0,.7,0,1.41,0,2.12Z"/><text class="cls-7" transform="translate(28.52 10.25)">Download from<tspan class="cls-8"><tspan x="0" y="9.02">Google Play</tspan></tspan></text></g></g></g></svg>