<svg xmlns="http://www.w3.org/2000/svg" viewBox="0 0 18.07 15.68"><defs><style>.cls-1{fill:#ff4c00;}</style></defs><g id="Layer_2" data-name="Layer 2"><g id="Layer_1-2" data-name="Layer 1"><path class="cls-1" d="M15.88,14.42H2.24a2.63,2.63,0,0,0,0,.33c0,1,0,.86-.91.92-.63,0-.82-.21-.75-.79,0-.17,0-.45-.06-.53-.57-.43-.39-1-.44-1.6a5.89,5.89,0,0,1,.92-4,.76.76,0,0,0,.12-.56A1.34,1.34,0,0,1,2,6.34V1.64C2,.34,2.36,0,3.63,0H14.52c1.16,0,1.53.37,1.54,1.52V6.3c1,.46,1.21,1,.93,1.94a.59.59,0,0,0,.08.45,6.72,6.72,0,0,1,1,4.64,5.29,5.29,0,0,1-.32.89,2.9,2.9,0,0,0-.16.87c0,.44-.16.62-.59.57a2.78,2.78,0,0,0-.5,0c-.48.06-.63-.17-.59-.62A6,6,0,0,0,15.88,14.42ZM.56,11c0,.73,0,1.4,0,2.06s.16.78.77.78c5.14,0,10.29,0,15.43,0,.13,0,.28,0,.37,0s.37-.24.37-.37c0-.8,0-1.6,0-2.44ZM8.9,6.4h.27c0-.65,0-1.31,0-2s.32-1.06,1-1.07q2,0,4.05,0a.9.9,0,0,1,1,1c0,.48,0,1,0,1.43,0,.22,0,.44.09.8.13-.21.19-.26.19-.3,0-1.71,0-3.41,0-5.11,0-.43-.3-.61-.71-.62H3.48c-.73,0-.92.16-.93.78,0,1.58,0,3.15,0,4.73a2.13,2.13,0,0,0,.13.47c.1-.15.15-.18.15-.22l0-1.8c0-.82.32-1.13,1.14-1.13H7.67c.94,0,1.23.3,1.23,1.23Zm8.42,4c-.28-.56-.49-1.07-.78-1.53a.83.83,0,0,0-.61-.37q-6.9,0-13.8,0a.74.74,0,0,0-.52.22c-.31.53-.56,1.09-.86,1.69ZM9.1,8h0C11.4,8,13.71,8,16,8a2.35,2.35,0,0,0,.61-.18,2.23,2.23,0,0,0-.26-.67A.84.84,0,0,0,15.8,7H9.26C7,7,4.7,7,2.41,6.94c-.57,0-.94.2-.94.71S2,8,2.31,8C4.57,8,6.84,8,9.1,8ZM8.38,6.41c0-.72,0-1.39,0-2a.74.74,0,0,0-.51-.46c-1.3,0-2.6,0-3.91,0-.18,0-.5.27-.51.44-.06.67,0,1.35,0,2.06Zm6.29,0c0-.73,0-1.43,0-2.12,0-.14-.29-.37-.45-.38-1.35,0-2.69,0-4,0a.61.61,0,0,0-.44.4c-.05.69,0,1.39,0,2.1ZM1.09,15.08h.54c.08-.73.08-.73-.54-.61ZM17,15.15l-.05-.8c-.22.05-.46.05-.52.15a.56.56,0,0,0,0,.52C16.53,15.12,16.77,15.1,17,15.15Z"/></g></g></svg>