


<svg xmlns="http://www.w3.org/2000/svg" viewBox="0 0 10.14 10.08"><defs><style>.cls-1{fill:#4DED36;}</style></defs><g id="Layer_2" data-name="Layer 2"><g id="Layer_1-2" data-name="Layer 1"><path class="cls-1" d="M5.12,0c.39.08.49.41.63.74L6.07.43A.5.5,0,0,1,6.62.25.54.54,0,0,1,7,.74c0,.13,0,.25.06.41.11-.06.21-.1.3-.16a.6.6,0,0,1,.68,0,.53.53,0,0,1,.2.61c0,.11,0,.22-.06.37l.37-.07a.55.55,0,0,1,.62.21.56.56,0,0,1,0,.63c-.07.1-.13.21-.21.34l.47.06a.49.49,0,0,1,.44.35.53.53,0,0,1-.14.58l-.32.3c.3.2.73.24.71.71s-.42.5-.72.66l.37.36a.52.52,0,0,1-.22.85A4.82,4.82,0,0,1,9,7c.08.15.17.3.24.45a.51.51,0,0,1-.1.56.49.49,0,0,1-.5.18c-.14,0-.28-.06-.44-.09,0,.16,0,.3.06.44a.54.54,0,0,1-.2.55.56.56,0,0,1-.63,0L7.08,9c-.08.35,0,.77-.46.9S6,9.6,5.76,9.36c-.07.15-.13.29-.2.42a.49.49,0,0,1-.44.3.5.5,0,0,1-.53-.28c-.06-.14-.13-.28-.21-.45-.13.13-.24.26-.36.37a.48.48,0,0,1-.53.12.53.53,0,0,1-.36-.46c0-.13,0-.27-.06-.43l-.4.21a.51.51,0,0,1-.6-.05.53.53,0,0,1-.19-.57c0-.12.05-.25.08-.4l-.46.09A.48.48,0,0,1,1,8a.49.49,0,0,1-.1-.55c.07-.15.16-.29.25-.45L.73,7a.53.53,0,0,1-.34-.92L.7,5.72c-.28-.16-.7-.2-.7-.67s.42-.51.73-.69C.47,4.12.1,3.92.24,3.49s.53-.38.91-.41C1.06,2.92,1,2.79.93,2.67a.5.5,0,0,1,0-.59.52.52,0,0,1,.58-.19L2,2c0-.14-.05-.26-.08-.38A.52.52,0,0,1,2.07,1,.51.51,0,0,1,2.68.94l.39.21c0-.15,0-.27.06-.4A.53.53,0,0,1,3.5.26a.52.52,0,0,1,.58.16c.09.1.2.2.32.31C4.53.42,4.62.08,5,0ZM8.59,5A3.51,3.51,0,0,0,5.14,1.52a3.56,3.56,0,0,0-3.6,3.55A3.54,3.54,0,0,0,5.06,8.54,3.5,3.5,0,0,0,8.59,5Z"/><path class="cls-1" d="M4.39,5.34,6.21,3.6a.5.5,0,0,1,.56-.14A.6.6,0,0,1,7.12,4a.37.37,0,0,1-.09.2C6.25,5,5.46,5.77,4.66,6.53c-.26.25-.41.23-.66,0s-.57-.59-.84-.9a.46.46,0,0,1,0-.72.48.48,0,0,1,.73,0C4.07,5.07,4.23,5.19,4.39,5.34Z"/></g></g></svg>