<svg xmlns="http://www.w3.org/2000/svg" viewBox="0 0 84.92 29.97"><defs><style>.cls-1{isolation:isolate;}.cls-2{opacity:0.25;mix-blend-mode:multiply;}.cls-3,.cls-5{fill:none;stroke-miterlimit:10;stroke-width:0.25px;}.cls-3{stroke:#000;}.cls-4{fill:#fff;}.cls-5{stroke:#b3b3b3;}.cls-6{fill:#ff3d00;}.cls-7{font-size:6.05px;font-family:Montserrat-Regular, Montserrat;}.cls-8{font-family:Montserrat-Bold, Montserrat;font-weight:700;}</style></defs><g class="cls-1"><g id="Layer_2" data-name="Layer 2"><g id="Layer_1-2" data-name="Layer 1"><g class="cls-2"><rect x="0.13" y="0.13" width="83.67" height="26.7" rx="13.35"/><rect class="cls-3" x="0.13" y="0.13" width="83.67" height="26.7" rx="13.35"/></g><rect class="cls-4" x="1.13" y="0.13" width="83.67" height="26.7" rx="13.35"/><rect class="cls-5" x="1.13" y="0.13" width="83.67" height="26.7" rx="13.35"/><path class="cls-6" d="M8.21,13.12A4.15,4.15,0,0,1,9.75,9.6a2.81,2.81,0,0,1,3-.42,2.72,2.72,0,0,0,2.41,0,3.18,3.18,0,0,1,3.45.55c.47.44.54.46,0,.88a3,3,0,0,0,.47,4.88c.29.17.31.31.2.59a8.47,8.47,0,0,1-1.65,2.59,1.69,1.69,0,0,1-2.16.43,3.06,3.06,0,0,0-2.81,0,1.67,1.67,0,0,1-2.12-.42A8.6,8.6,0,0,1,8.21,13.12Z"/><path class="cls-6" d="M16.55,5.94A3,3,0,0,1,14.37,8.7c-.52.13-.65,0-.57-.5a3.16,3.16,0,0,1,2.38-2.55C16.52,5.57,16.62,5.65,16.55,5.94Z"/><text class="cls-7" transform="translate(28.66 10.22)">Download from<tspan class="cls-8"><tspan x="0" y="9.07">App Store</tspan></tspan></text></g></g></g></svg>