<svg xmlns="http://www.w3.org/2000/svg" viewBox="0 0 14.96 10.53"><defs><style>.cls-1{fill:#ef4e1f;}</style></defs><g id="Layer_2" data-name="Layer 2"><g id="Layer_1-2" data-name="Layer 1"><path class="cls-1" d="M7.72,0A10.38,10.38,0,0,1,14.6,2.75l.13.12a.69.69,0,0,1,0,1,.7.7,0,0,1-1,0A15.19,15.19,0,0,0,12,2.55,9.17,9.17,0,0,0,1.27,3.76,1.17,1.17,0,0,1,.81,4,.6.6,0,0,1,.09,3.7a.63.63,0,0,1,.15-.82A19.07,19.07,0,0,1,2,1.53,10.55,10.55,0,0,1,7.72,0Z"/><path class="cls-1" d="M7.45,3.07a7.38,7.38,0,0,1,5.19,2.08.71.71,0,0,1,.2.88.61.61,0,0,1-.7.34,1.08,1.08,0,0,1-.43-.24,6,6,0,0,0-8.44,0,.7.7,0,0,1-1,0,.71.71,0,0,1,.11-1A7.31,7.31,0,0,1,7.45,3.07Z"/><path class="cls-1" d="M11,8a2.62,2.62,0,0,1-.5.54.57.57,0,0,1-.75-.14,3.16,3.16,0,0,0-1.65-.85,3.12,3.12,0,0,0-2.8.84.66.66,0,0,1-.82.14.6.6,0,0,1-.34-.69.82.82,0,0,1,.22-.41,4.52,4.52,0,0,1,6.32,0A2.78,2.78,0,0,1,11,8Z"/><path class="cls-1" d="M8.33,9.71a.85.85,0,0,1-1.69-.05.85.85,0,0,1,1.69.05Z"/></g></g></svg>