<?xml version="1.0" encoding="utf-8"?>
<svg viewBox="0 0 42.49 16.56" xmlns="http://www.w3.org/2000/svg">
  <defs>
    <style>.cls-1{font-size:9.74px;}.cls-1,.cls-2{fill:#ff3d00;}.cls-1,.cls-3{font-family:GothamRounded-Bold, Gotham Rounded;font-weight:700;}.cls-3{font-size:4.38px;fill:#f7931e;}</style>
  </defs>
  <g id="Layer_2" data-name="Layer 2">
    <g id="Layer_1-2" data-name="Layer 1">
      <text class="cls-1" transform="matrix(0.722947, 0, 0, 1, 0, 11.15)" style="white-space: pre;">roomph</text>
      <ellipse class="cls-2" cx="33.198" cy="9.67" rx="1.68" ry="1.66"/>
      <path class="cls-2" d="M 34.436 1.221 C 33.78 0.629 32.757 0.521 31.966 0.961 C 30.739 1.638 30.565 3.178 31.616 4.062 C 31.822 4.182 31.944 4.39 31.936 4.611 C 31.936 4.988 31.876 5.303 31.846 5.644 C 31.851 5.689 31.851 5.735 31.846 5.779 C 31.786 6.309 31.746 6.49 31.676 7.055 C 31.676 7.316 31.676 7.478 31.976 7.487 L 34.056 7.487 C 34.296 7.487 34.386 7.361 34.336 6.965 C 34.266 6.39 34.216 5.995 34.166 5.644 C 34.166 5.393 34.106 5.105 34.066 4.745 C 34.038 4.511 34.139 4.279 34.336 4.125 C 34.548 3.956 34.727 3.754 34.866 3.531 C 35.325 2.763 35.148 1.814 34.436 1.221 Z" style=""/>
      <text class="cls-3" transform="matrix(0.710946, 0, 0, 0.856933, 0.181873, 14.057965)" style="white-space: pre;">PREMIUM</text>
    </g>
  </g>
</svg>