<svg xmlns="http://www.w3.org/2000/svg" viewBox="0 0 14.33 19.52"><defs><style>.cls-1{fill:#ff4c00;}</style></defs><g id="Layer_2" data-name="Layer 2"><g id="Layer_1-2" data-name="Layer 1"><path class="cls-1" d="M14.33,19.52H0C0,15.4,0,11.28,0,7.17A6.85,6.85,0,0,1,4.1.73,14.75,14.75,0,0,1,6.52,0h1.3a2,2,0,0,0,.33.08A7.18,7.18,0,0,1,14.33,7C14.34,11.17,14.33,15.34,14.33,19.52ZM.83,14.66h5.5V10.89H.83Zm7.16,0h5.5V10.89H8Zm-7.15,4h5.5V15H.84ZM13.51,15H8v3.64h5.52ZM.83,10.52H6.35V7.58H.83ZM13.51,7.58H8v2.94h5.52ZM4.34,2.72A2,2,0,0,1,2.67,4.51L5.54,6.17l.6-.59ZM8.77,6.16,11.65,4.5A2,2,0,0,1,9.92,2.76L8.17,5.56Zm.82-3.5a2,2,0,0,1-2.26-.61V5.33l.52.11ZM6.84,7.32l-.11.07a1.9,1.9,0,0,0,0,.25v11c0,.06,0,.13,0,.17s.09.16.14.16A.21.21,0,0,0,7,18.78a1.3,1.3,0,0,0,0-.34V8.52c0-.3,0-.61,0-.91C7,7.51,6.9,7.42,6.84,7.32Zm.78,0c-.39,0-.28.27-.28.45V18.48a.75.75,0,0,0,0,.3c0,.07.12.12.26.24ZM4.7,2.66l1.75,2.8.49-.14V2.07A2,2,0,0,1,4.7,2.66Zm7.22,2.07L9,6.41c-.06,0-.13.15-.11.18s.14.16.22.16h3.11A2.5,2.5,0,0,1,11.92,4.73ZM2,6.75h3.2a.28.28,0,0,0,.21-.15.29.29,0,0,0-.14-.22L4,5.64,2.34,4.71A2.1,2.1,0,0,1,2,6.75ZM7.35.83A1.48,1.48,0,0,0,8.44,2.41a1.46,1.46,0,0,0,1.74-.82A5.85,5.85,0,0,0,7.35.83Zm-3.23.78A1.46,1.46,0,0,0,6,2.37a1.36,1.36,0,0,0,1-1.54A6,6,0,0,0,4.12,1.61Zm6.43.19a1.46,1.46,0,0,0,.18,1.92,1.41,1.41,0,0,0,1.86.15A6.12,6.12,0,0,0,10.55,1.8ZM1.71,3.93a1.49,1.49,0,0,0,1.88-.29,1.41,1.41,0,0,0,.13-1.79A6.16,6.16,0,0,0,1.71,3.93ZM5.76,6.76H8.59a1.54,1.54,0,0,0-1.54-1.1A1.37,1.37,0,0,0,5.76,6.76Zm7.72,0a5.53,5.53,0,0,0-.68-2.46,1.45,1.45,0,0,0-.53,1.79C12.55,6.67,12.8,6.87,13.48,6.72ZM.87,6.7c.54.17.83,0,1.15-.64a1.41,1.41,0,0,0-.5-1.77A5.43,5.43,0,0,0,.87,6.7Z"/></g></g></svg>