


<svg xmlns="http://www.w3.org/2000/svg" viewBox="0 0 14.08 13.27" height="10" width="20"><defs><style>.cls-1{fill:#fff;}.cls-2{fill:#EF4E22;}</style></defs><g id="Layer_2" data-name="Layer 2"><g id="Layer_1-2" data-name="Layer 1"><polygon class="cls-1" points="7.04 0 9.21 4.37 14.08 5.07 10.56 8.47 11.39 13.27 7.04 11 2.69 13.27 3.52 8.47 0 5.07 4.86 4.37 7.04 0"/><path class="cls-2" d="M7.92,9.79,7,8.33H6.08V9.79h-1V5.36H6.91a2.18,2.18,0,0,1,1,.19,1.43,1.43,0,0,1,.62.51,1.48,1.48,0,0,1,.21.79,1.36,1.36,0,0,1-.22.79,1.37,1.37,0,0,1-.62.51L9,9.79ZM7.51,6.32a1,1,0,0,0-.65-.18H6.08V7.57h.78a1,1,0,0,0,.65-.19.64.64,0,0,0,.22-.53A.65.65,0,0,0,7.51,6.32Z"/></g></g></svg>