<svg xmlns="http://www.w3.org/2000/svg" width="20.793" height="23.763" viewBox="0 0 20.793 23.763"><defs><style>.a{fill:#f04e23;}</style></defs><path class="a" d="M0,21.535a2.228,2.228,0,0,0,2.228,2.228H18.565a2.228,2.228,0,0,0,2.228-2.228V8.911H0Zm2.97-8.911a.745.745,0,0,1,.743-.743H8.169a.745.745,0,0,1,.743.743V17.08a.745.745,0,0,1-.743.743H3.713a.745.745,0,0,1-.743-.743ZM18.565,2.97H16.337V.743A.745.745,0,0,0,15.595,0H14.109a.745.745,0,0,0-.743.743V2.97H7.426V.743A.745.745,0,0,0,6.683,0H5.2a.745.745,0,0,0-.743.743V2.97H2.228A2.228,2.228,0,0,0,0,5.2V7.426H20.793V5.2A2.228,2.228,0,0,0,18.565,2.97Z"/></svg>