<svg xmlns="http://www.w3.org/2000/svg" width="16.335" height="23.755" viewBox="0 0 16.335 23.755"><defs><style>.a{fill:#f04e23;}</style></defs><g transform="translate(-79.968 0.001)"><path class="a" d="M95.168,4.067A8.061,8.061,0,0,0,88.318,0c-.122,0-.244,0-.366,0A8.061,8.061,0,0,0,81.1,4.067a8.27,8.27,0,0,0-.108,8.172l5.891,10.782.008.014a1.432,1.432,0,0,0,2.484,0l.008-.014,5.891-10.782a8.27,8.27,0,0,0-.108-8.172Zm-7.033,6.7a3.341,3.341,0,1,1,3.341-3.341A3.344,3.344,0,0,1,88.135,10.764Z" transform="translate(0 0)"/></g></svg>