<svg xmlns="http://www.w3.org/2000/svg" xmlns:xlink="http://www.w3.org/1999/xlink" width="60.641" height="20.63" viewBox="0 0 60.641 20.63"><defs><style>.a{fill:none;}.b{clip-path:url(#a);}.c{fill:#f04e23;}</style><clipPath id="a"><rect class="a" width="60.64" height="20.63"/></clipPath></defs><g class="b"><path class="c" d="M0,46.489a.925.925,0,0,1,.927-.944.938.938,0,0,1,.944.944v.835A2.59,2.59,0,0,1,3.93,45.529a.861.861,0,0,1,.929.929.878.878,0,0,1-.744.891c-1.33.239-2.244,1.259-2.244,3.193v2.414a.934.934,0,0,1-.944.927A.921.921,0,0,1,0,52.956Z" transform="translate(0.001 -35.731)"/><path class="c" d="M20.21,49.549v-.032a4.357,4.357,0,0,1,8.711-.022v.03a4.271,4.271,0,0,1-4.378,4.256,4.218,4.218,0,0,1-4.333-4.232m6.839,0v-.032a2.526,2.526,0,0,0-2.506-2.631,2.475,2.475,0,0,0-2.461,2.61v.03a2.517,2.517,0,0,0,2.491,2.614,2.458,2.458,0,0,0,2.476-2.582" transform="translate(-15.862 -35.511)"/><path class="c" d="M62.79,49.549v-.032a4.357,4.357,0,0,1,8.711-.03v.03a4.271,4.271,0,0,1-4.378,4.256,4.211,4.211,0,0,1-4.333-4.223m6.839,0v-.032a2.526,2.526,0,0,0-2.506-2.631,2.475,2.475,0,0,0-2.461,2.61v.03a2.517,2.517,0,0,0,2.491,2.614,2.457,2.457,0,0,0,2.476-2.582" transform="translate(-49.281 -35.511)"/><path class="c" d="M105.984,46.28a.925.925,0,0,1,.927-.944.938.938,0,0,1,.947.944v.387a2.925,2.925,0,0,1,2.491-1.407,2.589,2.589,0,0,1,2.444,1.439,3.282,3.282,0,0,1,2.754-1.439c1.779,0,2.861,1.13,2.861,3.126v4.361a.912.912,0,0,1-.929.927.925.925,0,0,1-.944-.927V48.956c0-1.291-.6-2-1.657-2s-1.749.712-1.749,2.027v3.761a.936.936,0,0,1-1.872,0V48.941c0-1.269-.62-1.981-1.657-1.981a1.785,1.785,0,0,0-1.749,2.027v3.761a.936.936,0,0,1-1.872,0Z" transform="translate(-83.179 -35.523)"/><path class="c" d="M168.219,46.272a.925.925,0,0,1,.929-.944.938.938,0,0,1,.944.944v.51a3.251,3.251,0,0,1,2.786-1.532,3.9,3.9,0,0,1,3.791,4.24v.03a3.909,3.909,0,0,1-3.791,4.24,3.337,3.337,0,0,1-2.786-1.439v2.894a.936.936,0,0,1-1.872,0Zm6.545,3.249V49.5a2.424,2.424,0,0,0-2.336-2.614,2.46,2.46,0,0,0-2.382,2.614v.03a2.463,2.463,0,0,0,2.384,2.614,2.4,2.4,0,0,0,2.336-2.614" transform="translate(-132.028 -35.515)"/><path class="c" d="M210.362,32.087a.921.921,0,0,1,.927-.927.934.934,0,0,1,.945.927v3.528a2.974,2.974,0,0,1,2.554-1.424,2.8,2.8,0,0,1,2.909,3.126V41.68a.912.912,0,0,1-.929.927.925.925,0,0,1-.944-.927V37.889c0-1.269-.635-2-1.749-2a1.8,1.8,0,0,0-1.842,2.027V41.68a.936.936,0,1,1-1.872,0Z" transform="translate(-165.102 -24.456)"/><path class="c" d="M259.247,62.674A2.679,2.679,0,1,1,256.569,60a2.678,2.678,0,0,1,2.678,2.674" transform="translate(-199.267 -47.091)"/><path class="c" d="M256.422.957a3.165,3.165,0,0,0-3.946-.471,3.521,3.521,0,0,0-.562,5.553,1.179,1.179,0,0,1,.51.994c-.062.665-.1,1.237-.14,1.848h0c0,.08-.017.159-.026.243-.108.957-.164,1.265-.275,2.291-.049.456.056.755.482.764.546.013,2.762,0,3.322,0,.385,0,.518-.215.441-.921-.112-1.035-.2-1.747-.269-2.367h0c-.047-.452-.1-.972-.153-1.616a1.252,1.252,0,0,1,.43-1.11A4.393,4.393,0,0,0,257.1,5.1a3.466,3.466,0,0,0-.658-4.135" transform="translate(-196.85 -0.002)"/></g></svg>