<svg id="Layer_1" data-name="Layer 1" xmlns="http://www.w3.org/2000/svg" xmlns:xlink="http://www.w3.org/1999/xlink" viewBox="0 0 281.87 95.88"><defs><style>.cls-1{fill:none;}.cls-2{clip-path:url(#clip-path);}.cls-3{fill:#f04e23;}</style><clipPath id="clip-path" transform="translate(0 0)"><rect class="cls-1" width="281.86" height="95.89"/></clipPath></defs><title>logo-1</title><g class="cls-2"><path class="cls-3" d="M0,50a4.3,4.3,0,0,1,4.31-4.39A4.36,4.36,0,0,1,8.7,50v3.88c2-4.75,5.75-8.34,9.57-8.34a4,4,0,0,1,4.32,4.32A4.08,4.08,0,0,1,19.13,54C12.95,55.11,8.7,59.85,8.7,68.84V80.06a4.34,4.34,0,0,1-4.39,4.31A4.28,4.28,0,0,1,0,80.06Z" transform="translate(0 0)"/><path class="cls-3" d="M20.21,65.25V65.1A19.85,19.85,0,0,1,40.49,45.25C52.14,45.25,60.7,54.1,60.7,65v.14c0,10.79-8.63,19.78-20.35,19.78S20.21,76,20.21,65.25m31.79,0V65.1c0-6.69-4.82-12.23-11.65-12.23S28.91,58.34,28.91,65v.14c0,6.62,4.82,12.15,11.58,12.15,7,0,11.51-5.47,11.51-12" transform="translate(0 0)"/><path class="cls-3" d="M62.79,65.25V65.1A19.85,19.85,0,0,1,83.07,45.25c11.65,0,20.21,8.85,20.21,19.71v.14c0,10.79-8.63,19.78-20.35,19.78S62.79,76,62.79,65.25m31.79,0V65.1c0-6.69-4.82-12.23-11.65-12.23S71.49,58.34,71.49,65v.14c0,6.62,4.82,12.15,11.58,12.15,7,0,11.51-5.47,11.51-12" transform="translate(0 0)"/><path class="cls-3" d="M106,50a4.3,4.3,0,0,1,4.31-4.39A4.36,4.36,0,0,1,114.71,50v1.8c2.44-3.38,5.75-6.54,11.58-6.54,5.47,0,9.35,2.66,11.36,6.69,3-4,7-6.69,12.8-6.69,8.27,0,13.3,5.25,13.3,14.53V80.06a4.24,4.24,0,0,1-4.32,4.31,4.3,4.3,0,0,1-4.39-4.31V62.44c0-6-2.81-9.28-7.7-9.28s-8.13,3.31-8.13,9.42V80.06a4.35,4.35,0,0,1-8.7,0V62.37c0-5.9-2.88-9.21-7.7-9.21s-8.13,3.6-8.13,9.42V80.06a4.35,4.35,0,0,1-8.7,0Z" transform="translate(0 0)"/><path class="cls-3" d="M168.22,50a4.3,4.3,0,0,1,4.32-4.39A4.36,4.36,0,0,1,176.93,50v2.37c2.81-4,6.76-7.12,12.95-7.12,8.92,0,17.62,7,17.62,19.71v.14c0,12.59-8.63,19.71-17.62,19.71a15.51,15.51,0,0,1-12.95-6.69V91.57a4.35,4.35,0,0,1-8.7,0Zm30.42,15.1V65c0-7.33-5-12.15-10.86-12.15S176.71,57.69,176.71,65v.14c0,7.26,5.18,12.15,11.08,12.15s10.86-4.68,10.86-12.15" transform="translate(0 0)"/><path class="cls-3" d="M210.37,35.47a4.28,4.28,0,0,1,4.31-4.31,4.34,4.34,0,0,1,4.39,4.31v16.4c2.45-3.52,6-6.62,11.87-6.62,8.56,0,13.52,5.75,13.52,14.53V80.06a4.24,4.24,0,0,1-4.32,4.31,4.3,4.3,0,0,1-4.39-4.31V62.44c0-5.9-2.95-9.28-8.13-9.28s-8.56,3.52-8.56,9.42V80.06a4.35,4.35,0,0,1-8.7,0Z" transform="translate(0 0)"/><path class="cls-3" d="M278.79,72.43A12.45,12.45,0,1,1,266.34,60a12.45,12.45,0,0,1,12.45,12.45" transform="translate(0 0)"/><path class="cls-3" d="M276.89,4.44c-5.25-5-12.21-5.84-18.34-2.19-9.11,5.42-10.43,18.53-2.61,25.81,1.34,1.25,2.56,2.53,2.37,4.62-.29,3.09-.45,5.75-.65,8.59h0c0,.37-.08.74-.12,1.13-.5,4.45-.76,5.88-1.28,10.65-.23,2.12.26,3.51,2.24,3.55,2.54.06,12.84,0,15.44,0,1.79,0,2.41-1,2.05-4.28-.52-4.81-.91-8.12-1.25-11h0c-.22-2.1-.45-4.52-.71-7.51a5.82,5.82,0,0,1,2-5.16,20.42,20.42,0,0,0,4-4.94,16.11,16.11,0,0,0-3.06-19.22" transform="translate(0 0)"/></g></svg>