<svg xmlns="http://www.w3.org/2000/svg" width="31.43" height="27.937" viewBox="0 0 31.43 27.937"><defs><style>.a{fill:#fff;}</style></defs><path class="a" d="M15.715,0A6.875,6.875,0,0,0,8.84,6.875c0,3.07,4.493,8.665,6.215,10.7a.861.861,0,0,0,1.32,0C18.1,15.54,22.59,9.945,22.59,6.875A6.875,6.875,0,0,0,15.715,0Zm0,9.167a2.292,2.292,0,1,1,2.292-2.292A2.291,2.291,0,0,1,15.715,9.167ZM1.1,11.783A1.746,1.746,0,0,0,0,13.4V27.063a.873.873,0,0,0,1.2.811L8.73,24.445V11.727a16.524,16.524,0,0,1-1.16-2.533Zm14.617,7.842a2.607,2.607,0,0,1-1.992-.925c-1.073-1.266-2.214-2.708-3.246-4.186v9.931l10.477,3.492V14.514c-1.032,1.478-2.173,2.92-3.246,4.186A2.608,2.608,0,0,1,15.715,19.625ZM30.232,8.794,22.7,12.223V27.937l7.633-3.053a1.746,1.746,0,0,0,1.1-1.621V9.6A.873.873,0,0,0,30.232,8.794Z"/></svg>