<svg xmlns="http://www.w3.org/2000/svg" width="16.288" height="23.688" viewBox="0 0 16.288 23.688"><defs><style>.a{fill:#f04e23;}</style></defs><g transform="translate(-79.968 0)"><path class="a" d="M95.125,4.056A8.038,8.038,0,0,0,88.294,0c-.121,0-.243,0-.364,0A8.039,8.039,0,0,0,81.1,4.056a8.247,8.247,0,0,0-.108,8.148l5.874,10.751.008.014a1.428,1.428,0,0,0,2.477,0l.008-.014L95.232,12.2a8.247,8.247,0,0,0-.108-8.148Zm-7.013,6.677A3.331,3.331,0,1,1,91.443,7.4,3.335,3.335,0,0,1,88.112,10.733Z"/></g></svg>