<svg xmlns="http://www.w3.org/2000/svg" width="25.625" height="20.5" viewBox="0 0 25.625 20.5"><defs><style>.a{fill:#f04e23;}</style></defs><path class="a" d="M25.25,14.611,21.634,11a2.564,2.564,0,0,0-1.814-.749H16.645a1.28,1.28,0,0,0-1.281,1.281V14.7a2.554,2.554,0,0,0,.749,1.81l3.616,3.612a1.283,1.283,0,0,0,1.814,0l3.7-3.7a1.275,1.275,0,0,0,0-1.81ZM17.93,13.77a.961.961,0,1,1,.961-.961A.959.959,0,0,1,17.93,13.77ZM8.969,10.246A5.123,5.123,0,1,0,3.844,5.125,5.125,5.125,0,0,0,8.969,10.246ZM14.086,14.7V11.772a5.387,5.387,0,0,0-1.53-.248h-.669a6.97,6.97,0,0,1-5.838,0H5.382A5.389,5.389,0,0,0,0,16.909v1.666A1.922,1.922,0,0,0,1.922,20.5H16.016a1.913,1.913,0,0,0,1.518-.757l-2.322-2.322A3.819,3.819,0,0,1,14.086,14.7Z"/></svg>